<?xml version="1.0" encoding="UTF-8" standalone="no"?>
<!-- Created with Inkscape (http://www.inkscape.org/) -->

<svg
   xmlns:dc="http://purl.org/dc/elements/1.1/"
   xmlns:cc="http://creativecommons.org/ns#"
   xmlns:rdf="http://www.w3.org/1999/02/22-rdf-syntax-ns#"
   xmlns:svg="http://www.w3.org/2000/svg"
   xmlns="http://www.w3.org/2000/svg"
   xmlns:sodipodi="http://sodipodi.sourceforge.net/DTD/sodipodi-0.dtd"
   xmlns:inkscape="http://www.inkscape.org/namespaces/inkscape"
   width="32"
   height="32"
   viewBox="0 0 8.4666665 8.4666669"
   version="1.1"
   id="svg8"
   inkscape:version="0.92.3 (2405546, 2018-03-11)"
   sodipodi:docname="hand_bye.svg"
   inkscape:export-filename="/home/raul/projects/chatbot/botino/templates/hand_bye.png"
   inkscape:export-xdpi="96"
   inkscape:export-ydpi="96">
  <defs
     id="defs2" />
  <sodipodi:namedview
     id="base"
     pagecolor="#ffffff"
     bordercolor="#666666"
     borderopacity="1.0"
     inkscape:pageopacity="0.0"
     inkscape:pageshadow="2"
     inkscape:zoom="15.839192"
     inkscape:cx="16.006194"
     inkscape:cy="16"
     inkscape:document-units="mm"
     inkscape:current-layer="layer1"
     showgrid="false"
     units="px"
     inkscape:window-width="1315"
     inkscape:window-height="713"
     inkscape:window-x="51"
     inkscape:window-y="27"
     inkscape:window-maximized="1" />
  <metadata
     id="metadata5">
    <rdf:RDF>
      <cc:Work
         rdf:about="">
        <dc:format>image/svg+xml</dc:format>
        <dc:type
           rdf:resource="http://purl.org/dc/dcmitype/StillImage" />
        <dc:title></dc:title>
      </cc:Work>
    </rdf:RDF>
  </metadata>
  <g
     inkscape:label="Capa 1"
     inkscape:groupmode="layer"
     id="layer1"
     transform="translate(0,-288.53332)">
    <path
       style="fill:#f1c400;fill-opacity:1;stroke:#000000;stroke-width:0.26458332px;stroke-linecap:butt;stroke-linejoin:miter;stroke-opacity:1"
       d="m 7.0826425,294.21036 c 0.02046,0.41176 -0.098602,0.85987 -0.3507914,1.18601 -0.3896226,0.50387 -1.0036524,0.91829 -1.6370258,0.98556 -0.4097367,0.0435 -0.8349794,-0.16007 -1.169304,-0.40091 -0.6993975,-0.50384 -1.7205477,-1.97111 -1.7205477,-1.97111 0,0 -0.2010417,-0.3792 -0.083522,-0.50113 0.1207773,-0.12531 1.3363476,0.90202 1.3363476,0.90202 l -1.3697563,-1.67044 c 0,0 -0.2912501,-0.43195 -0.1503392,-0.56795 0.1381492,-0.13334 1.8708868,1.63703 1.8708868,1.63703 L 2.1548603,291.7214 c 0,0 -0.2596353,-0.39173 -0.1336348,-0.51784 0.1422257,-0.14235 0.5345391,0.25057 0.5345391,0.25057 l 1.8207736,1.63702 c 0,0 -1.6284082,-1.98755 -1.4866864,-2.12143 0.1421885,-0.13432 0.6681738,0.28396 0.6681738,0.28396 l 0.8018086,0.65147 1.0690781,0.95215 c 0,0 -0.3086328,-0.81784 -0.2171561,-1.28623 0.056396,-0.28876 0.243985,-0.65739 0.5679478,-0.83522 0.3369403,-0.18494 1.0022607,-0.16705 1.0022607,-0.16705 0,0 -0.4467476,0.58591 -0.5011304,0.93544 -0.070517,0.45323 0.2505652,1.35305 0.2505652,1.35305 0,0 0.5270738,0.86665 0.551243,1.35307 z"
       id="path815"
       inkscape:connector-curvature="0"
       sodipodi:nodetypes="sssscsccsccsccscccsscscs" />
    <path
       style="fill:none;stroke:#f1c400;stroke-width:0.26458332px;stroke-linecap:butt;stroke-linejoin:miter;stroke-opacity:1"
       d="m 3.3742779,289.90064 c 0,0 0.6954354,0.20077 0.8686258,0.3675 0.2540222,0.24453 0.484426,0.91873 0.484426,0.91873"
       id="path817"
       inkscape:connector-curvature="0"
       sodipodi:nodetypes="csc" />
    <path
       style="fill:none;stroke:#f1c400;stroke-width:0.26458332px;stroke-linecap:butt;stroke-linejoin:miter;stroke-opacity:1"
       d="m 3.2740518,288.91508 c 0,0 0.9886633,-0.0243 1.4031649,0.33409 0.3595921,0.31093 0.6013565,1.25282 0.6013565,1.25282"
       id="path819"
       inkscape:connector-curvature="0"
       sodipodi:nodetypes="csc" />
    <path
       style="fill:none;stroke:#f1c400;stroke-width:0.26458332px;stroke-linecap:butt;stroke-linejoin:miter;stroke-opacity:1"
       d="m 1.5702085,293.85957 c 0,0 0.00591,0.6319 0.1670434,0.88533 0.1583647,0.24908 0.7182869,0.51783 0.7182869,0.51783"
       id="path821"
       inkscape:connector-curvature="0"
       sodipodi:nodetypes="csc" />
    <path
       style="fill:none;stroke:#f1c400;stroke-width:0.26458332px;stroke-linecap:butt;stroke-linejoin:miter;stroke-opacity:1"
       d="m 0.51783471,294.27718 c 0,0 0.17357562,0.96901 0.48442599,1.31964 0.3981265,0.44907 1.6036172,0.81851 1.6036172,0.81851"
       id="path823"
       inkscape:connector-curvature="0"
       sodipodi:nodetypes="csc" />
  </g>
</svg>
