<?xml version="1.0" encoding="UTF-8" standalone="no"?>
<svg
   xmlns:dc="http://purl.org/dc/elements/1.1/"
   xmlns:cc="http://creativecommons.org/ns#"
   xmlns:rdf="http://www.w3.org/1999/02/22-rdf-syntax-ns#"
   xmlns:svg="http://www.w3.org/2000/svg"
   xmlns="http://www.w3.org/2000/svg"
   xmlns:sodipodi="http://sodipodi.sourceforge.net/DTD/sodipodi-0.dtd"
   xmlns:inkscape="http://www.inkscape.org/namespaces/inkscape"
   height="512"
   viewBox="0 0 512 512"
   width="512"
   version="1.1"
   id="svg26"
   sodipodi:docname="language.svg"
   inkscape:version="0.92.2 (5c3e80d, 2017-08-06)"
   inkscape:export-filename="D:\projects\chatbot\botino_re\templates\language.png"
   inkscape:export-xdpi="12"
   inkscape:export-ydpi="12">
  <metadata
     id="metadata32">
    <rdf:RDF>
      <cc:Work
         rdf:about="">
        <dc:format>image/svg+xml</dc:format>
        <dc:type
           rdf:resource="http://purl.org/dc/dcmitype/StillImage" />
      </cc:Work>
    </rdf:RDF>
  </metadata>
  <defs
     id="defs30" />
  <sodipodi:namedview
     pagecolor="#ffffff"
     bordercolor="#666666"
     borderopacity="1"
     objecttolerance="10"
     gridtolerance="10"
     guidetolerance="10"
     inkscape:pageopacity="0"
     inkscape:pageshadow="2"
     inkscape:window-width="1366"
     inkscape:window-height="745"
     id="namedview28"
     showgrid="false"
     inkscape:zoom="0.92187498"
     inkscape:cx="186.8853"
     inkscape:cy="267.23837"
     inkscape:window-x="-8"
     inkscape:window-y="-8"
     inkscape:window-maximized="1"
     inkscape:current-layer="layer1"
     showguides="true"
     inkscape:guide-bbox="true" />
  <g
     inkscape:groupmode="layer"
     id="layer2"
     inkscape:label="Layer 2"
     style="display:inline">
    <g
       id="g935"
       transform="matrix(1.2545726,0,0,1.2545726,-9.2637726,-53.154226)">
      <path
         sodipodi:nodetypes="cssscc"
         inkscape:connector-curvature="0"
         id="path848"
         d="m 95.969221,324.16484 c 0,0 -21.271974,-115.18359 -7.43074,-170.28883 15.497439,-61.699146 38.192089,-93.458273 82.357819,-98.457872 62.20506,-7.041553 129.52702,52.592292 159.14268,107.746372 52.19408,97.20273 36.53461,161.00033 36.53461,161.00033 z"
         style="display:inline;fill:#ffffff;stroke:#000000;stroke-width:7.41402245;stroke-linecap:butt;stroke-linejoin:miter;stroke-miterlimit:4;stroke-dasharray:none;stroke-opacity:1" />
      <path
         sodipodi:nodetypes="sssss"
         inkscape:connector-curvature="0"
         id="path850"
         d="m 192.56944,124.15296 c -16.46266,13.94519 -5.9758,50.19489 1.23847,64.4001 7.53364,14.83412 26.62036,33.89259 39.63085,30.34235 12.44819,-3.39675 22.54438,-20.63181 10.52697,-61.30397 -5.7916,-19.60107 -32.89775,-49.10835 -51.39629,-33.43848 z"
         style="display:inline;fill:#ffff00;stroke:#000000;stroke-width:7.41402245;stroke-linecap:butt;stroke-linejoin:miter;stroke-miterlimit:4;stroke-dasharray:none;stroke-opacity:1" />
      <path
         sodipodi:nodetypes="sssss"
         inkscape:connector-curvature="0"
         id="path850-3"
         d="m 248.99034,111.31617 c -13.74728,12.69152 -4.99019,45.68207 1.03417,58.61017 6.29103,13.5005 22.22955,30.84551 33.09392,27.61441 10.39496,-3.09133 18.82593,-18.77689 8.79064,-55.7924 -4.83629,-17.83884 -27.4714,-44.693116 -42.91873,-30.43218 z"
         style="display:inline;fill:#ffff00;stroke:#000000;stroke-width:6.46330547;stroke-linecap:butt;stroke-linejoin:miter;stroke-miterlimit:4;stroke-dasharray:none;stroke-opacity:1" />
      <path
         sodipodi:nodetypes="sssss"
         inkscape:connector-curvature="0"
         id="path850-6-7"
         d="m 219.32505,150.33174 c -4.0847,3.46011 -1.4827,12.45447 0.307,15.97912 1.86923,3.6806 6.60509,8.40949 9.83334,7.52863 3.08867,-0.84252 5.59377,-5.11926 2.6119,-15.21095 -1.43659,-4.86346 -8.16222,-12.18483 -12.75214,-8.2968 z"
         style="display:inline;fill:#000000;stroke:#000000;stroke-width:7.41402245;stroke-linecap:butt;stroke-linejoin:miter;stroke-miterlimit:4;stroke-dasharray:none;stroke-opacity:1" />
      <path
         sodipodi:nodetypes="sssss"
         inkscape:connector-curvature="0"
         id="path850-6"
         d="m 275.41336,139.74279 c -4.25987,2.27165 -3.68021,10.69567 -2.77423,14.14362 0.94648,3.60057 4.21965,8.67137 7.2331,8.51003 2.8831,-0.15399 5.90617,-3.44649 5.20087,-12.91016 -0.33937,-4.56078 -4.87298,-12.29597 -9.65974,-9.74349 z"
         style="display:inline;fill:#000000;stroke:#000000;stroke-width:7.41402245;stroke-linecap:butt;stroke-linejoin:miter;stroke-miterlimit:4;stroke-dasharray:none;stroke-opacity:1" />
      <path
         inkscape:connector-curvature="0"
         id="path892"
         d="m 168.55579,150.33322 35.02906,-45.09997"
         style="display:inline;fill:none;stroke:#000000;stroke-width:18.53505707;stroke-linecap:butt;stroke-linejoin:miter;stroke-miterlimit:4;stroke-dasharray:none;stroke-opacity:1" />
      <path
         inkscape:connector-curvature="0"
         id="path892-5"
         d="m 242.64742,97.694624 51.48241,24.710326"
         style="display:inline;fill:none;stroke:#000000;stroke-width:18.53505707;stroke-linecap:butt;stroke-linejoin:miter;stroke-miterlimit:4;stroke-dasharray:none;stroke-opacity:1" />
      <path
         inkscape:connector-curvature="0"
         id="path909"
         d="m 138.78114,197.62244 20.14169,-15.76313"
         style="display:inline;fill:none;stroke:#000000;stroke-width:7.41402245;stroke-linecap:butt;stroke-linejoin:miter;stroke-miterlimit:4;stroke-dasharray:none;stroke-opacity:1" />
      <path
         inkscape:connector-curvature="0"
         id="path909-3"
         d="m 320.55677,199.73267 20.01693,15.92115"
         style="display:inline;fill:none;stroke:#000000;stroke-width:7.41402245;stroke-linecap:butt;stroke-linejoin:miter;stroke-miterlimit:4;stroke-dasharray:none;stroke-opacity:1" />
      <path
         sodipodi:nodetypes="csc"
         inkscape:connector-curvature="0"
         id="path926"
         d="m 148.85194,190.17876 c 0,0 37.80251,70.8826 117.7852,72.2474 44.28039,0.75523 63.49021,-53.85715 63.49021,-53.85715"
         style="display:inline;fill:none;stroke:#000000;stroke-width:7.41402245;stroke-linecap:butt;stroke-linejoin:miter;stroke-miterlimit:4;stroke-dasharray:none;stroke-opacity:1" />
      <path
         sodipodi:nodetypes="sssss"
         inkscape:connector-curvature="0"
         id="path928"
         d="m 105.50352,151.20888 c -15.204669,1.52213 -22.707797,28.52745 -21.893131,43.78636 0.862133,16.14703 7.523322,43.72672 23.644561,42.47275 17.42906,-1.35578 24.05661,-31.69342 21.89323,-49.04066 -1.77017,-14.19434 -9.4115,-38.64328 -23.64466,-37.21845 z"
         style="display:inline;fill:none;stroke:#000000;stroke-width:16.68155098;stroke-linecap:butt;stroke-linejoin:miter;stroke-miterlimit:4;stroke-dasharray:none;stroke-opacity:1" />
      <path
         sodipodi:nodetypes="cscc"
         inkscape:connector-curvature="0"
         id="path946"
         d="m 240.8695,222.61083 c 0,0 13.22166,-46.53058 30.96163,-43.96545 14.01858,2.02695 13.62311,40.25003 13.62311,40.25003 z"
         style="display:inline;fill:#ffffff;stroke:none;stroke-width:7.41402245;stroke-linecap:butt;stroke-linejoin:miter;stroke-miterlimit:4;stroke-dasharray:none;stroke-opacity:1" />
      <path
         sodipodi:nodetypes="csc"
         inkscape:connector-curvature="0"
         id="path965"
         d="m 240.8695,222.61083 c 0,0 11.90326,-47.02913 29.72316,-44.89438 14.48926,1.73584 14.86158,41.17896 14.86158,41.17896"
         style="display:inline;fill:none;stroke:#000000;stroke-width:7.41402245;stroke-linecap:butt;stroke-linejoin:miter;stroke-miterlimit:4;stroke-dasharray:none;stroke-opacity:1" />
      <path
         inkscape:connector-curvature="0"
         id="path934"
         d="M 95.969221,324.16484 H 366.57359 L 362.09138,254.54465 226.6272,261.0032 88.864701,278.18921 Z"
         style="display:inline;fill:#0000ff;stroke:#000000;stroke-width:3.70701122;stroke-linecap:butt;stroke-linejoin:miter;stroke-miterlimit:4;stroke-dasharray:none;stroke-opacity:1" />
      <path
         sodipodi:nodetypes="csccsssscc"
         inkscape:connector-curvature="0"
         id="path931"
         d="m 88.864701,278.18921 c 0,0 108.301219,-36.37033 164.636599,-38.96978 36.51647,-1.68504 108.59008,15.32522 108.59008,15.32522 l 2.6271,14.0116 c 0,0 -26.13779,13.43479 -38.0941,21.89313 -22.26967,15.75431 -16.77535,33.71546 -72.24741,33.71546 -29.41803,0 -54.8928,-20.33766 -81.0046,-35.02906 -14.16079,-7.96725 -31.091,-13.09564 -47.28924,-11.82224 -12.64817,0.99415 -35.029059,14.88727 -35.029059,14.88727 z"
         style="display:inline;fill:#ff0000;stroke:#000000;stroke-width:7.41402245;stroke-linecap:butt;stroke-linejoin:miter;stroke-miterlimit:4;stroke-dasharray:none;stroke-opacity:1" />
      <path
         sodipodi:nodetypes="sssss"
         inkscape:connector-curvature="0"
         id="path939"
         d="m 268.11571,316.7341 c -18.86575,2.44457 -53.49229,-7.55384 -56.96927,-29.72316 -3.34134,-21.30346 28.24742,-35.78508 55.11161,-38.39237 18.16025,-1.76262 47.8584,3.15008 51.3963,24.76926 3.19038,19.49642 -23.98188,40.03455 -49.53864,43.34627 z"
         style="display:inline;fill:#ffff00;stroke:#000000;stroke-width:7.41402245;stroke-linecap:butt;stroke-linejoin:miter;stroke-miterlimit:4;stroke-dasharray:none;stroke-opacity:1" />
      <path
         sodipodi:nodetypes="ccssc"
         inkscape:connector-curvature="0"
         id="path941"
         d="m 247.06186,261.62239 19.19619,-1.85766 c 0,0 -0.26874,17.34313 -0.6189,26.00774 -0.47079,11.6344 -2.83071,19.56271 -13.62309,19.19618 -9.1506,-0.31091 -11.14627,-13.6231 -11.14627,-13.6231"
         style="display:inline;fill:none;stroke:#000000;stroke-width:7.41402245;stroke-linecap:butt;stroke-linejoin:miter;stroke-miterlimit:4;stroke-dasharray:none;stroke-opacity:1" />
      <path
         sodipodi:nodetypes="csssc"
         inkscape:connector-curvature="0"
         id="path943"
         d="m 295.36193,268.43394 c 0,0 -0.95532,-10.70803 -11.76546,-11.14616 -9.74417,-0.39526 -15.92242,13.17155 -16.40959,22.9116 -0.4649,9.29116 4.34854,22.2429 13.62311,21.51827 13.81211,-1.07909 15.32599,-12.38464 15.32599,-12.38464"
         style="display:inline;fill:none;stroke:#000000;stroke-width:7.41402245;stroke-linecap:butt;stroke-linejoin:miter;stroke-miterlimit:4;stroke-dasharray:none;stroke-opacity:1" />
    </g>
  </g>
  <g
     inkscape:groupmode="layer"
     id="layer1"
     inkscape:label="Layer 1"
     style="display:inline">
    <g
       transform="translate(-432.45067,46.671686)"
       id="g848"
       style="fill:#f8c300;fill-opacity:1">
      <path
         inkscape:connector-curvature="0"
         id="path2"
         d="M 214.057,240 H 180.95 a 237.173,237.173 0 0 0 2.958,30.148 z"
         style="fill:#f8c300;fill-opacity:1" />
      <path
         inkscape:connector-curvature="0"
         id="path4"
         d="M 174.856,161.456 A 505.249,505.249 0 0 1 119.1,149.149 159.08,159.08 0 0 0 96.222,224 h 68.716 a 251.43,251.43 0 0 1 9.918,-62.544 z"
         style="fill:#f8c300;fill-opacity:1" />
      <path
         inkscape:connector-curvature="0"
         id="path6"
         d="m 248,206.056 v -38.128 a 507.977,507.977 0 0 1 -57.136,-4.152 235.387,235.387 0 0 0 -9.92,60.224 h 49.112 z"
         style="fill:#f8c300;fill-opacity:1" />
      <path
         inkscape:connector-curvature="0"
         id="path8"
         d="m 218.7,76.37 a 159.106,159.106 0 0 0 -90.074,58.807 489.955,489.955 0 0 0 51.261,10.866 A 248.394,248.394 0 0 1 218.7,76.37 Z"
         style="fill:#f8c300;fill-opacity:1" />
      <path
         inkscape:connector-curvature="0"
         id="path10"
         d="M 248,151.928 V 72.2 c -1.67,0.082 -3.334,0.2 -4.993,0.333 a 233.2,233.2 0 0 0 -46.879,75.789 492.129,492.129 0 0 0 51.872,3.606 z"
         style="fill:#f8c300;fill-opacity:1" />
      <path
         inkscape:connector-curvature="0"
         id="path12"
         d="M 312.992,141.063 A 234.1,234.1 0 0 0 269,72.531 c -1.661,-0.134 -3.327,-0.251 -5,-0.333 v 79.728 c 13.519,-0.222 27.087,-1.01 40.476,-2.346 z"
         style="fill:#f8c300;fill-opacity:1" />
      <path
         inkscape:connector-curvature="0"
         id="path14"
         d="m 350.893,103.163 a 158.8,158.8 0 0 0 -57.6,-26.8 249.34,249.34 0 0 1 31.87,52.527 z"
         style="fill:#f8c300;fill-opacity:1" />
      <path
         inkscape:connector-curvature="0"
         id="path16"
         d="m 264,167.929 v 22.127 l 23.021,-23.02 q -11.497,0.707 -23.021,0.893 z"
         style="fill:#f8c300;fill-opacity:1" />
      <path
         inkscape:connector-curvature="0"
         id="path18"
         d="M 164.938,240 H 96.209 a 160.316,160.316 0 0 0 30.958,86.89 L 170.2,283.858 A 252.685,252.685 0 0 1 164.938,240 Z"
         style="fill:#f8c300;fill-opacity:1" />
    </g>
    <path
       inkscape:connector-curvature="0"
       d="m 462.93745,332.00727 -365.204389,1.4555 c 5.034339,32.74116 18.844549,63.50691 39.963169,89.02809 7.85903,9.50546 16.63613,18.21289 26.20394,25.99589 1.98815,1.61631 4.05463,3.22087 6.32138,4.90544 4.50963,3.35366 5.00298,9.92416 1.0447,13.91362 l -23.77822,23.96849 99.35934,-4.37084 c 0.65865,-0.0287 1.31849,0.0127 1.96837,0.12355 98.39869,16.96653 192.47011,-47.32892 212.40041,-145.17038 0.66071,-3.24674 1.23447,-6.52986 1.7213,-9.84936 z"
       id="path20"
       style="fill:#f8c300;fill-opacity:1;stroke:#000000;stroke-width:8.0798645;stroke-miterlimit:4;stroke-dasharray:none;stroke-opacity:1"
       sodipodi:nodetypes="ccccccccccc" />
    <path
       inkscape:connector-curvature="0"
       d="m -191.09427,41.461274 a 224.007,224.007 0 0 0 -25.438,288.236996 l -6.76,-1 a 8.0003112,8.0003112 0 1 0 -2.344,15.828 l 27,4 a 8,8 0 0 0 9.11,-6.922 l 3,-24 a 8,8 0 0 0 -15.876,-1.984 l -0.676,5.4 a 208.021,208.021 0 0 1 23.244,-268.191996 8,8 0 1 0 -11.26,-11.367 z"
       id="path22"
       style="fill:#f8c300;fill-opacity:1;stroke:#000000;stroke-width:7;stroke-miterlimit:4;stroke-dasharray:none;stroke-opacity:1" />
    <path
       inkscape:connector-curvature="0"
       d="m -88.5365,257.69602 h 6.013 a 8.0000002,8.0000002 0 0 0 0,-16 h -24 a 8,8 0 0 0 -8,8 v 24 a 8,8 0 0 0 16,0 v -2.638 a 208,208 0 0 1 -20.218,269.00801 8.0002972,8.0002972 0 0 0 11.368,11.26 224,224 0 0 0 18.837,-293.63001 z"
       id="path24"
       style="fill:#f8c300;fill-opacity:1;stroke:#000000;stroke-width:7;stroke-miterlimit:4;stroke-dasharray:none;stroke-opacity:1" />
    <path
       style="opacity:1;fill:#ffffff;fill-opacity:1;stroke:#000000;stroke-width:7.80321503;stroke-linecap:round;stroke-linejoin:round;stroke-miterlimit:4;stroke-dasharray:none;stroke-opacity:1"
       id="path952"
       sodipodi:type="arc"
       sodipodi:cx="198.05327"
       sodipodi:cy="392.36594"
       sodipodi:rx="16.673359"
       sodipodi:ry="16.673359"
       sodipodi:start="0"
       sodipodi:end="6.227422"
       sodipodi:open="true"
       d="m 214.72663,392.36594 a 16.673359,16.673359 0 0 1 -16.44093,16.67174 16.673359,16.673359 0 0 1 -16.89931,-16.20692 16.673359,16.673359 0 0 1 15.96976,-17.1236 16.673359,16.673359 0 0 1 17.34456,15.7295" />
    <path
       style="display:inline;opacity:1;fill:#ffffff;fill-opacity:1;stroke:#000000;stroke-width:7.80321503;stroke-linecap:round;stroke-linejoin:round;stroke-miterlimit:4;stroke-dasharray:none;stroke-opacity:1"
       id="path952-9"
       sodipodi:type="arc"
       sodipodi:cx="281.41986"
       sodipodi:cy="391.93848"
       sodipodi:rx="16.673359"
       sodipodi:ry="16.673359"
       sodipodi:start="0"
       sodipodi:end="6.227422"
       sodipodi:open="true"
       d="m 298.09322,391.93848 a 16.673359,16.673359 0 0 1 -16.44093,16.67174 16.673359,16.673359 0 0 1 -16.89931,-16.20692 16.673359,16.673359 0 0 1 15.96976,-17.1236 16.673359,16.673359 0 0 1 17.34456,15.7295" />
    <path
       style="display:inline;opacity:1;fill:#ffffff;fill-opacity:1;stroke:#000000;stroke-width:7.80321503;stroke-linecap:round;stroke-linejoin:round;stroke-miterlimit:4;stroke-dasharray:none;stroke-opacity:1"
       id="path952-8"
       sodipodi:type="arc"
       sodipodi:cx="361.79401"
       sodipodi:cy="391.93848"
       sodipodi:rx="16.673359"
       sodipodi:ry="16.673359"
       sodipodi:start="0"
       sodipodi:end="6.227422"
       sodipodi:open="true"
       d="m 378.46737,391.93848 a 16.673359,16.673359 0 0 1 -16.44093,16.67174 16.673359,16.673359 0 0 1 -16.89931,-16.20692 16.673359,16.673359 0 0 1 15.96976,-17.1236 16.673359,16.673359 0 0 1 17.34456,15.7295" />
  </g>
</svg>
