<?xml version="1.0" encoding="UTF-8" standalone="no"?>
<svg
   xmlns:dc="http://purl.org/dc/elements/1.1/"
   xmlns:cc="http://creativecommons.org/ns#"
   xmlns:rdf="http://www.w3.org/1999/02/22-rdf-syntax-ns#"
   xmlns:svg="http://www.w3.org/2000/svg"
   xmlns="http://www.w3.org/2000/svg"
   xmlns:sodipodi="http://sodipodi.sourceforge.net/DTD/sodipodi-0.dtd"
   xmlns:inkscape="http://www.inkscape.org/namespaces/inkscape"
   height="512"
   viewBox="0 0 512 512"
   width="512"
   version="1.1"
   id="svg26"
   sodipodi:docname="translating.svg"
   inkscape:version="0.92.2 (5c3e80d, 2017-08-06)"
   inkscape:export-filename="D:\projects\chatbot\botino_re\templates\translating.png"
   inkscape:export-xdpi="12"
   inkscape:export-ydpi="12">
  <metadata
     id="metadata32">
    <rdf:RDF>
      <cc:Work
         rdf:about="">
        <dc:format>image/svg+xml</dc:format>
        <dc:type
           rdf:resource="http://purl.org/dc/dcmitype/StillImage" />
      </cc:Work>
    </rdf:RDF>
  </metadata>
  <defs
     id="defs30" />
  <sodipodi:namedview
     pagecolor="#ffffff"
     bordercolor="#666666"
     borderopacity="1"
     objecttolerance="10"
     gridtolerance="10"
     guidetolerance="10"
     inkscape:pageopacity="0"
     inkscape:pageshadow="2"
     inkscape:window-width="1366"
     inkscape:window-height="745"
     id="namedview28"
     showgrid="false"
     inkscape:zoom="1.3037281"
     inkscape:cx="148.19953"
     inkscape:cy="258.89909"
     inkscape:window-x="-8"
     inkscape:window-y="-8"
     inkscape:window-maximized="1"
     inkscape:current-layer="svg26" />
  <g
     id="g848"
     style="fill:#f8c300;fill-opacity:1">
    <path
       id="path2"
       d="m214.057 240h-33.107a237.173 237.173 0 0 0 2.958 30.148z"
       style="fill:#f8c300;fill-opacity:1" />
    <path
       id="path4"
       d="m174.856 161.456a505.249 505.249 0 0 1 -55.756-12.307 159.08 159.08 0 0 0 -22.878 74.851h68.716a251.43 251.43 0 0 1 9.918-62.544z"
       style="fill:#f8c300;fill-opacity:1" />
    <path
       id="path6"
       d="m248 206.056v-38.128a507.977 507.977 0 0 1 -57.136-4.152 235.387 235.387 0 0 0 -9.92 60.224h49.112z"
       style="fill:#f8c300;fill-opacity:1" />
    <path
       id="path8"
       d="m218.7 76.37a159.106 159.106 0 0 0 -90.074 58.807 489.955 489.955 0 0 0 51.261 10.866 248.394 248.394 0 0 1 38.813-69.673z"
       style="fill:#f8c300;fill-opacity:1" />
    <path
       id="path10"
       d="m248 151.928v-79.728c-1.67.082-3.334.2-4.993.333a233.2 233.2 0 0 0 -46.879 75.789 492.129 492.129 0 0 0 51.872 3.606z"
       style="fill:#f8c300;fill-opacity:1" />
    <path
       id="path12"
       d="m312.992 141.063a234.1 234.1 0 0 0 -43.992-68.532c-1.661-.134-3.327-.251-5-.333v79.728c13.519-.222 27.087-1.01 40.476-2.346z"
       style="fill:#f8c300;fill-opacity:1" />
    <path
       id="path14"
       d="m350.893 103.163a158.8 158.8 0 0 0 -57.6-26.8 249.34 249.34 0 0 1 31.87 52.527z"
       style="fill:#f8c300;fill-opacity:1" />
    <path
       id="path16"
       d="m264 167.929v22.127l23.021-23.02q-11.497.707-23.021.893z"
       style="fill:#f8c300;fill-opacity:1" />
    <path
       id="path18"
       d="m164.938 240h-68.729a160.316 160.316 0 0 0 30.958 86.89l43.033-43.032a252.685 252.685 0 0 1 -5.262-43.858z"
       style="fill:#f8c300;fill-opacity:1" />
  </g>
  <path
     d="m384.834 137.11-223.727 223.727a158.85 158.85 0 0 0 78.9 30.372 162.556 162.556 0 0 0 31.978 0c2.209-.219 4.459-.493 6.881-.84a8 8 0 0 1 9.132 7.92v29.25l58.443-63.313a8.048 8.048 0 0 1 1.286-1.125 160.04 160.04 0 0 0 42.058-218.883q-2.362-3.6-4.951-7.108zm-128.834 190.89a16 16 0 1 1 16-16 16 16 0 0 1 -16 16zm48 0a16 16 0 1 1 16-16 16 16 0 0 1 -16 16zm48 0a16 16 0 1 1 16-16 16 16 0 0 1 -16 16z"
     id="path20"
     style="fill:#1b57bb;fill-opacity:1" />
  <path
     d="m82.37 72.85a224.007 224.007 0 0 0 -25.438 288.237l-6.76-1a8 8 0 1 0 -2.344 15.828l27 4a8 8 0 0 0 9.11-6.922l3-24a8 8 0 0 0 -15.876-1.984l-.676 5.4a208.021 208.021 0 0 1 23.244-268.192 8 8 0 1 0 -11.26-11.367z"
     id="path22"
     style="fill:#1b57bb;fill-opacity:1" />
  <path
     d="m448.521 96h6.013a8 8 0 0 0 0-16h-24a8 8 0 0 0 -8 8v24a8 8 0 0 0 16 0v-2.638a208 208 0 0 1 -20.218 269.008 8 8 0 0 0 11.368 11.26 224 224 0 0 0 18.837-293.63z"
     id="path24"
     style="fill:#f8c300;fill-opacity:1" />
</svg>
